/* XPM */
static char *d8b5f59210d847369578738b1de30411ExPrGrYOWXJHUG9U[] = {
/* columns rows colors chars-per-pixel */
"47 75 226 2 ",
"   c None",
".  c #2B0202",
"X  c #2E0708",
"o  c #330202",
"O  c #360908",
"+  c #3D1617",
"@  c #490707",
"#  c #5B0000",
"$  c #540807",
"%  c #56160F",
"&  c #550E11",
"*  c #4A1212",
"=  c #541314",
"-  c #5B1413",
";  c #5C1B1C",
":  c #581817",
">  c #650000",
",  c #6B0101",
"<  c #6B0A0B",
"1  c #730303",
"2  c #7B0204",
"3  c #72060B",
"4  c #7C040A",
"5  c #750B0C",
"6  c #7B0C0C",
"7  c #750A07",
"8  c #76110E",
"9  c #7B120F",
"0  c #760D12",
"q  c #7A0E11",
"w  c #6D1316",
"e  c #641A1B",
"r  c #6A1B1C",
"t  c #631316",
"y  c #751314",
"u  c #7B1314",
"i  c #7D1519",
"p  c #741C1D",
"a  c #7B1C1C",
"s  c #791816",
"d  c #5A241E",
"f  c #6B211E",
"g  c #74241D",
"h  c #7C1E22",
"j  c #741E21",
"k  c #5A2525",
"l  c #6C2324",
"z  c #682929",
"x  c #732322",
"c  c #7C2324",
"v  c #742B2B",
"b  c #7C272B",
"n  c #7F2E32",
"m  c #6D3C3A",
"M  c #664748",
"N  c #7B4645",
"B  c #7D595C",
"V  c #830B0C",
"C  c #880709",
"Z  c #950D0C",
"A  c #9D0B0C",
"S  c #83110F",
"D  c #860D13",
"F  c #9C0F12",
"G  c #940F12",
"H  c #841414",
"J  c #8C1314",
"K  c #821419",
"L  c #841B1B",
"P  c #8A1C1C",
"I  c #881918",
"U  c #921414",
"Y  c #941A1C",
"T  c #991615",
"R  c #95110F",
"E  c #A00C0F",
"W  c #A21414",
"Q  c #A91416",
"!  c #A31A1A",
"~  c #AC1B1C",
"^  c #A61818",
"/  c #B21D1D",
"(  c #84211E",
")  c #8B211E",
"_  c #92201F",
"`  c #AB211F",
"'  c #861D21",
"]  c #8A1E22",
"[  c #9C1D21",
"{  c #A31D20",
"}  c #AC1E21",
"|  c #B31F21",
" . c #BA1E24",
".. c #842425",
"X. c #8C2324",
"o. c #832B2B",
"O. c #8C2B2C",
"+. c #832529",
"@. c #922324",
"#. c #942628",
"$. c #932A2C",
"%. c #9C2C2C",
"&. c #992627",
"*. c #8A2E34",
"=. c #822B31",
"-. c #952D31",
";. c #893939",
":. c #883335",
">. c #943234",
",. c #95343B",
"<. c #9B3A3C",
"1. c #98393B",
"2. c #9E302F",
"3. c #A32324",
"4. c #AC2223",
"5. c #AD2629",
"6. c #A52C2D",
"7. c #AA292D",
"8. c #B62324",
"9. c #BA2325",
"0. c #BC2926",
"q. c #B5252B",
"w. c #BB262D",
"e. c #B42A2D",
"r. c #BD2A2C",
"t. c #AC2E32",
"y. c #B32D32",
"u. c #BB2C32",
"i. c #BF2F38",
"p. c #A33333",
"a. c #AC3334",
"s. c #AD3C3D",
"d. c #AC3539",
"f. c #BD3435",
"g. c #B33438",
"h. c #BC343A",
"j. c #B53A3D",
"k. c #BB3D3D",
"l. c #B93535",
"z. c #C3272C",
"x. c #C32B2D",
"c. c #C92A2D",
"v. c #C3302F",
"b. c #C32D31",
"n. c #CB2D32",
"m. c #C92B37",
"M. c #C53234",
"N. c #CB3335",
"B. c #C4343B",
"V. c #CC353A",
"C. c #C33A3B",
"Z. c #CB3A3C",
"A. c #C93B37",
"S. c #D3353A",
"D. c #D23B3D",
"F. c #D7343A",
"G. c #91403F",
"H. c #BF423E",
"J. c #993F42",
"K. c #A83D43",
"L. c #B13D42",
"P. c #BD3C42",
"I. c #C33D42",
"U. c #CD3C42",
"Y. c #C43E4A",
"T. c #D43D41",
"R. c #D93C42",
"E. c #DA3D49",
"W. c #83484B",
"Q. c #994748",
"!. c #89524E",
"~. c #8D5D5A",
"^. c #975456",
"/. c #AA4246",
"(. c #BB4244",
"). c #BD444B",
"_. c #B74549",
"`. c #B84D52",
"'. c #A6575B",
"]. c #A55E60",
"[. c #996964",
"{. c #A66C6C",
"}. c #B26465",
"|. c #A97775",
" X c #B87474",
".X c #B36E73",
"XX c #C34344",
"oX c #CC4145",
"OX c #C54549",
"+X c #CC454B",
"@X c #C44B4C",
"#X c #CB494B",
"$X c #D44143",
"%X c #DA4446",
"&X c #D34449",
"*X c #D8494C",
"=X c #CD4D51",
"-X c #C54E50",
";X c #DD4951",
":X c #C75658",
">X c #D75556",
",X c #CD534D",
"<X c #E24D51",
"1X c #E6655F",
"2X c #CD7F7D",
"3X c #C87B81",
"4X c #B48684",
"5X c #C98384",
"6X c #C78C8B",
"7X c #C49394",
"8X c #D8999B",
"9X c #D7A7A5",
"0X c #D9B2B1",
"qX c #E3A9AA",
"wX c #E5A4A6",
"eX c #F8BEBD",
"rX c #E5B0B1",
"tX c #E7C0BA",
"yX c #FAC7C7",
"uX c #FFD2CE",
"iX c #FFD4D5",
"pX c #FEDBDB",
"aX c #FFD8D7",
"sX c #FFE0DD",
"dX c #FFE5E4",
"fX c #FFE8E7",
/* pixels */
"                                                                                              ",
"                                                                                              ",
"                                      ].v l z !.                                              ",
"                                ^.l c y O.$.<./.b -                                           ",
"                            ^.b Q.<.I ).=X=X@X-X).:X:.                                        ",
"                        ^.t +.>.I 2 XX#Xf.e.f.y.y.d.<.v                                       ",
"                      ; j `._.4 1 ,X>Xf.C.M.M.Z.q.{ ).O.                                      ",
"                  |.v J.X._.%.2 3.,Xl.C.M.r.x.x.D.M.7./.;.                                    ",
"                  z Q.$.@.a.Y 2 H.1Xe.C.;Xr.8.0.M.0.C.j.,.                                    ",
"                  - <.&.[ 7.V 2 l.oXC.C.$XN.0.M.v.0.u.j.K.}.                                  ",
"                |.x %.6.[ a.P , f.;XV.r.N.N.D.9.x.x.q.{ /.n                                   ",
"                |.r @.6.U j.H 1 5.B.B.V.T.b.N.z.N.0.b.h.L.:.qX                                ",
"                |.f X.J 2 6.P , G &XT.%XE. .S.N./ M.V.+Xt.,.8X                                ",
"                  : ( _ J V P , C C.>Xu.b.S.z.N.A.8.M.B.g.-..XfX                              ",
"                  % >.) S I I , 1 a.XX+X;XE.V.S.D.A.8.M.y./.'.pX                              ",
"                  d g P 2 H P > , p.j.OXU.V.N.x.0.r.N.M.I.`.n yX                              ",
"                  N f L H H #.< > %.-XI.U.z.z.n.0.$Xr.b.U.P.O.rX                              ",
"                  [.e ..6 H s 8 > I (.XXB.n.z.z.N.D.V.U.oXP.I 2XfX                            ",
"                    - O.P 6 ) X., 1 (.k.Z.V.D.N.$XM.N.b.B.OX%.}.pX                            ",
"                    f p P q 9 %.> , @X(.Z.N.n.9.V.x.V.r.w.I.p.:.yX                            ",
"                    z c ' 5 6 #., , p.@XC.%XN.D.V.N.T.V.u.y.d.c rX                            ",
"                    {.r O.L 6 2.P , I k.C.M.9.z.%XV.b.B.B.y.j.$.7X                            ",
"                      - >.u H &.) > 6 (.>XV.S.z.S.N.z.b.V.u.y.#..XfX                          ",
"                      : o.u 1 I #., , j.I.Z.<XS.9.D.S.b.B.B.C.L.Q.iX                          ",
"                      * p L I 2 @., , p.=XM.b.N.N.T.D.N.V.B.i.(.=.yX                          ",
"                      N l h 6 7 #.u > %.(.oXM.T.%XV.M.N.b.~ T.OX*.wX                          ",
"                        e +.5 6 P I > H k.XXZ.D.V.$XD.x.T.b.M.=XK.3XfX                        ",
"                        - o.u 6 P P > , (.oX$XV.T.T.V.M.M.Z.B.+X).'.sX                        ",
"                        = x 8 H P @.> > d.#X$XZ.T.$X8.Z.D.z.b.C.).,.yX                        ",
"                        z r y ) I @.5 > 6.XXU.V.N.b.M.%X%XN.N.8.Y.,.qX                        ",
"                        [.t a ) 6 @.( > @.k.U.V.N.D.$XM.D.$Xx.B.Y.K.6X                        ",
"                          - o.u 1 @.L , 1 j.C.T.%XT.N.$X8.x.D.B.P./. X                        ",
"                          * o.u 6 H @., , d.+XU.F.F.S.D.Z.Z.r.U.h.s.;.aX                      ",
"                          k x i I S P , , s.#XoXR.F.F.M.v.Z.M.u.l.@X1.eX                      ",
"                          !.r a 9 2 I 1 , %.(.B.R.n.z.M.M.Z.N.b.f.@X1.wX                      ",
"                          4X- a u 7 P P > H (.I.S.F.z.M.M.M.9.b.M.@X$.5X                      ",
"                          9X= a u 6 I $.> , ).#Xw.F.S.x.N.D.D.R.V.I.p.'.                      ",
"                          tXl c s 6 6 $., # j.OX*XD.D.x.D.N.R.c.z.*XL.c iX                    ",
"                            W.x a u q $.u > %.@XoXb.b.z.S.n.D.z.z.Z.)...qX                    ",
"                            {.e ..P q ' P , I @Xe.%XD.S.N.N.S.F.n.M.I.<.5X                    ",
"                            7X- o.u q ' ' > 7 @X#XZ.N.N.N.D.n.n.S.8.y.p.}.dX                  ",
"                            rX= 1.y 3 i $., > s.#XM.T.V.| z.n.c.z.r.XXs.G.uX                  ",
"                            pXk x < 0 3 $.u , p.@XC.<X*X0.z.n.R.N.%XZ.:Xo.yX                  ",
"                              W.- a L 3 ' 0 > ) >XC.V.N.b.N. .n.S.v.M.OX>.8X                  ",
"                              4X& c 0 3 L u > I >XC.b.M.V.$Xb.R.N.z.r.OX$.5XpX                ",
"                              9X; o.u q i K > , j.y.V.T.N.V.N.R.M.N.9.h.p.^.pX                ",
"                                ; c i 5 u ] , , a.I.Z.D.Z.D.b.r.S.%Xw.I.L.1.yX                ",
"                                N p y 3 K ' , , &.=XZ.M.U.D.b.M.M.9.T.q.(.*.9X                ",
"                                {.& w i L P u > V XXh.B.r.M.n.c.x.M.D.F j.O.5XdX              ",
"                                7X; *.u 5 ) X., 1 j.I.e.B.M.z.c.x.r.r.u.7.2.}.dX              ",
"                                  : b 0 5 I ) , 1 6.I.h.U.M.9.n.| 0.r.f.C.%.;.uX              ",
"                                  d t u u 6 9 , , Y +X+Xw.0.8.N.N.N.x.Z.5.d.*.eX              ",
"                                  ~.r ..u 6 u 7 , J +XB.w.N.z.x.x.N.8.4.5.a.a wX              ",
"                                  4X& p 0 5 8 5 , 4 h.u.T.D.x.9.9.0.| r.q.g.X. XfX            ",
"                                  0X& c L u u L > , h.i.V.9.8.x.8.8.0.A f.3.X.Q.iX            ",
"                                    ; b i q 5 s , , g.B.b.z.r./ / x.r.8.r.g.#.b yX            ",
"                                    N e a u 5 ( 5 , [ y.q.9.8.~ 0./ ~ 8.~ 5.p.w qX            ",
"                                    |.; c u , P u > J h.q.8.| Q 0.8.0.` A T &.a 6X            ",
"                                      = o.u , P L > 2 j.e.0.8.Q 9./ 8.~ W ! Y a ^.            ",
"                                      * =.s q I I , , t.5.8.8.A | Q ^ ^ ~ ! J ..z             ",
"                                      k :.y K 4 #.7 , &.t.} | E Q ~ W F W Z J >.=             ",
"                                      ~.e +.1 4 %.u > I g.{ } | A } ! Z F R Y >.=             ",
"                                        e a D 2 I 6 > , a.3.! ~ E ~ ! Z T T J -.;             ",
"                                        & +.K 4 6 L , > p.t.^ F ~ W ! Z F U 4 >.;             ",
"                                        : *.0 5 5 P > > H 3.3.4.` ! ! Z F C 4 ,.=             ",
"                                        W.r h < < i > , 9 6.Y U U C T G C J K b =             ",
"                                          @ n w < p a # > u @.@.@.Y V Y D q +.- N             ",
"                                          * z e e e x $ @ # h O.L I X.u L p v O               ",
"                                            o k z ; ; z @ @ @ t w w w j v m o                 ",
"                                              . X o * k k : O o @ t : l @ .                   ",
"                                                    M X O O + . o o o . m                     ",
"                                                              M M B                           ",
"                                                                                              ",
"                                                                                              ",
"                                                                                              "
};
