/* XPM */
static char *b46e9f59d7354168a59005d2e3d20536yYOenydOTb8oSEoI[] = {
/* columns rows colors chars-per-pixel */
"83 84 244 2 ",
"   c None",
".  c #2C0100",
"X  c #280103",
"o  c #340203",
"O  c #380709",
"+  c #3C1212",
"@  c #3A0D10",
"#  c #4C0101",
"$  c #460909",
"%  c #540001",
"&  c #5C0101",
"*  c #570A0A",
"=  c #480E11",
"-  c #461517",
";  c #5C1315",
":  c #59191A",
">  c #5C0B12",
",  c #630202",
"<  c #6C0101",
"1  c #640A0C",
"2  c #6A0C0C",
"3  c #68060A",
"4  c #740101",
"5  c #7A0404",
"6  c #790809",
"7  c #77110E",
"8  c #680C12",
"9  c #760D13",
"0  c #641312",
"q  c #6C1212",
"w  c #641A1D",
"e  c #6C1C1C",
"r  c #68161A",
"t  c #731315",
"y  c #74161A",
"u  c #731B1B",
"i  c #7C1C1D",
"p  c #7C1517",
"a  c #65100D",
"s  c #70221F",
"d  c #571F22",
"f  c #6D1D22",
"g  c #6B1723",
"h  c #7A1D21",
"j  c #761B23",
"k  c #592427",
"l  c #5B3335",
"z  c #6B2325",
"x  c #6A2729",
"c  c #732323",
"v  c #7C2324",
"b  c #742B2C",
"n  c #7B2C2C",
"m  c #752729",
"M  c #7A312D",
"N  c #692A32",
"B  c #7C2D33",
"V  c #772F3B",
"C  c #7B3636",
"Z  c #6F3134",
"A  c #6F3F40",
"S  c #775657",
"D  c #734C4D",
"F  c #850A0A",
"G  c #890E12",
"H  c #841B1D",
"J  c #8B1C1C",
"K  c #871517",
"L  c #921B1C",
"P  c #961819",
"I  c #81110D",
"U  c #A91F1C",
"Y  c #83231E",
"T  c #89221F",
"R  c #98211F",
"E  c #A7221C",
"W  c #8C1C21",
"Q  c #851E22",
"!  c #971C23",
"~  c #AA1B22",
"^  c #832324",
"/  c #8C2324",
"(  c #832529",
")  c #842A2A",
"_  c #8C2B2B",
"`  c #8B2729",
"'  c #942224",
"]  c #9B2325",
"[  c #95252A",
"{  c #9C252B",
"}  c #932B2C",
"|  c #9C2B2C",
" . c #952925",
".. c #97312F",
"X. c #882D31",
"o. c #982D32",
"O. c #8B3433",
"+. c #863736",
"@. c #933334",
"#. c #9A3434",
"$. c #9C363A",
"%. c #943A3C",
"&. c #9C3C3C",
"*. c #973837",
"=. c #AD2524",
"-. c #AD2A24",
";. c #A42B2C",
":. c #AC2B2C",
">. c #A62529",
",. c #B22524",
"<. c #B32A26",
"1. c #B42C2B",
"2. c #BA2D2C",
"3. c #B52729",
"4. c #AB342E",
"5. c #B4322C",
"6. c #BB322E",
"7. c #BB352B",
"8. c #AB2E32",
"9. c #A42D33",
"0. c #B42F31",
"q. c #BC2D31",
"w. c #B12530",
"e. c #A43334",
"r. c #AC3434",
"t. c #AC363A",
"y. c #A53B3B",
"u. c #AC3B3B",
"i. c #A73837",
"p. c #B43434",
"a. c #BC3433",
"s. c #B43A35",
"d. c #BC3A35",
"f. c #BB3539",
"g. c #B43C3C",
"h. c #BC3C3B",
"j. c #B33539",
"k. c #C0322D",
"l. c #C0382C",
"z. c #C23534",
"x. c #C33A36",
"c. c #C43639",
"v. c #C9363A",
"b. c #C43C3B",
"n. c #CA3D3C",
"m. c #C93736",
"M. c #CA3639",
"N. c #89423B",
"B. c #91423E",
"V. c #A9413D",
"C. c #BD413D",
"Z. c #B4413E",
"A. c #C5413D",
"S. c #CA423E",
"D. c #C64037",
"F. c #D0403F",
"G. c #9A3C41",
"H. c #8D3F44",
"J. c #AA3D41",
"K. c #B53E43",
"L. c #BC3E41",
"P. c #C43E41",
"I. c #CC3D42",
"U. c #D23F42",
"Y. c #8A4645",
"T. c #994747",
"R. c #895857",
"E. c #985857",
"W. c #984B51",
"Q. c #AC4444",
"!. c #A24A49",
"~. c #A94747",
"^. c #B44343",
"/. c #BC4343",
"(. c #B34549",
"). c #BD464A",
"_. c #B34C4C",
"`. c #BC4B4B",
"'. c #B84946",
"]. c #B9514D",
"[. c #B54D55",
"{. c #A95857",
"}. c #BA5557",
"|. c #A8504F",
" X c #876968",
".X c #946D6A",
"XX c #A66869",
"oX c #B66767",
"OX c #A87A76",
"+X c #B77878",
"@X c #B0726E",
"#X c #A3615D",
"$X c #C44343",
"%X c #CC4443",
"&X c #C24A46",
"*X c #CD4945",
"=X c #C34649",
"-X c #CB4549",
";X c #C34B4B",
":X c #CB4B4B",
">X c #D24444",
",X c #D34946",
"<X c #D34649",
"1X c #D34B4B",
"2X c #D94C4C",
"3X c #D94648",
"4X c #CB524E",
"5X c #C2524E",
"6X c #D4514E",
"7X c #DA524F",
"8X c #CA4E51",
"9X c #C54D54",
"0X c #D84D51",
"qX c #C55453",
"wX c #CC5355",
"eX c #CB595A",
"rX c #D45454",
"tX c #DB5454",
"yX c #D35659",
"uX c #D35B5C",
"iX c #DB5C5C",
"pX c #D55758",
"aX c #E25A5A",
"sX c #E0504F",
"dX c #D85D61",
"fX c #C75D61",
"gX c #C76666",
"hX c #D86465",
"jX c #C2787B",
"kX c #DA7271",
"lX c #E36464",
"zX c #E9696C",
"xX c #E07A78",
"cX c #D76160",
"vX c #B3837E",
"bX c #C5847F",
"nX c #BB7E80",
"mX c #C97D84",
"MX c #B78584",
"NX c #C58788",
"BX c #D69699",
"VX c #CC8E91",
"CX c #E2999A",
"ZX c #E8A3A3",
/* pixels */
"                                                                                                                                                                      ",
"                                                                                                                                                                      ",
"                                                                                                                                                                      ",
"                                                                                                                                                                      ",
"                                                                                                                    BXnX@X+XXXXXNX                                    ",
"                                                                                                                XXE.T.~.~.gXoXgX{.T.T.NX                              ",
"                                                                                                            NXN.!.J.K.L.8.g.8.g.hXxX}.m E.                            ",
"                                                                                                          C T._.i.r.f.c.q.I.f.:Xh.5XgX~.T.E.                          ",
"                                                                                                        X.$.i.s.s.a.n.n.x.I.>XA.A.g.g.hX} !.b                         ",
"                                                                                                      W.}./.f.a.b.n.x.2.>Xa.x.a.5.&XC.iXg.W {.z                       ",
"                          +X{.H.|.H.+.Y.+X                                                          +Xh K.p.c.x.S.b.S.c.%Xa.2Xd.5.s.P $XpX5 (.!.C                     ",
"                      {.X.&.~.J.eXfX}.gX{.M E.                                                      C ~.;.q.n.a.E D.S.x.,XS.x.5.:.s.s.$X:XG { J.+.A                   ",
"                  E.) y.e.r.p.p.>.;.r.uXkX~.O.W.                                                  .XB.y.:.c.S.a.D.1XS.3.n.,Xm.b.d.d.b.$XiXG ! `._ f R.                ",
"                C &.^.p.-.<.2.x.a.h.$XR /.uXy.&.Y.+X                                              M ~.;.1.z.S.x.a.5.%X2.v.v.a.2.c.c.$X1XrXG ] i.o.%.M                 ",
"              n [.;.>.=.2.k.2.7.D.5.<.b.a.p.zX| &.T.Y.                                          +X@.K.-Xv.m.n.x.-.d.n.q.n.c.<.c.3.n.a.p.:XR 5 '.e.#.f nX              ",
"            W.@.e.p.b.k.m.k.<.l.5.6.*X<.d.0.P.zXW [.{.x                                         +.^.p.3.3Xn.c.b.5.%X%X1Xn.3Xc.1.a.b.b.p.yX;.4 r.9...v @X              ",
"            O.u.;.p.b.2.2.m.2.x.6.a.<.-.<.=.:.iXyX6 ].!.w                                     bX_ r.p.d.n.6.2.6.a.b.n.,Xb.c.%Xn.b.U -Xr.4X;.< i.;.' ` T.              ",
"          +X@.t.:.<.5.a.z.c.3.n.z.U 2.=.-.$Xp.1.lX>.e.Q.T.z                                   +.V.4.A.a.n.a.x.,.x.a.d.d.b.S.c.c.c.a.a.p.hXr.4 '.r.L / n               ",
"          Y.*.u.>.<.<.5.x.2X6.<.z.m.a.d.b.p.b.$XtXpXF e.*.B.C                               BXv 5Xs.d.6.,.2.c.n.%X6.a.<.S.,Xa.x.n.%Xa.f.8X] < qXr.J } m               ",
"          M Q.^.4.a.x.x.2.2.=.6.6.2.a.1.0.b.%X0.:.aX:X5 _.T.m NX                            E.V.'.5.b.%X2.x.m.%Xx.a.%Xa.a.a.a.%X>Xa.p.C.yX/.< u.g.J } e               ",
"          b ~.K.b.a.6.<.6.2.a.m.x.a.a.-.0.a.b.a.2.b.aXP t._.G.B                             O.^.:.*X%X<.2X2X2.c.S.a.x.%Xd.b.%Xn.n.x.d./.uX).4 e.u.J _ z               ",
"          M ~.r.:.a.D.2.k.k.>X>Xm.n.=.-.$X1.<.x.c.=.tX1XG ).y.v XX                        W.y.r.A.6.a.m.c.z.2.n.%Xb.b.7Xd.x.>Xn.%X1Xp.p.iX'.4 | e.J } m               ",
"          n Q.r.a.2.6.x.n.k.z.z.2.2.2X$X0.d.<.a.x.c.c.tX>.;.u.$.c                         ) ;Xa.2.S.n.x.=.S.c.2.%Xx.a.%Xc.a.S.6.x.,X$X$XuX'.4 i.e.' } e               ",
"          m Q.p.=.2.6.6.2.2.a.6.%Xz.3.1.a.b.a.n.c.>Xa.%XtX! /.J.*.C                     oXy.$Xn.x.>Xm.z.%X%Xn.%Xx.x.n.%Xc.2.n.%X7Xb.$Xh.;XqX< |  .' ..e               ",
"          b Q.p.a.x.n.6.k.>Xb.S.2.2.x.a.b.1.n.c.2.x.c.0.lX$XP `.$.e OX                  _ '.a.x.m.n.x.n.%Xc.c.a.%Xa.c.%Xx.c.,Xn.n.$X$Xp.=X`.< V.^.J ..c               ",
"          b u.8.d.6.k.k.2.z.a.n.z.2.x.c.a.1.1.c.3.c.n.c.%XzXP r.y.@.x                 @X..h.3.m.,Xz.n.n.2.d.b.c.c.c.c.a.n.c.a.n.c.n.-Xp.8X/.< | g.J #.c               ",
"          b u.p.a.2.z.k.3.2.x.a.z.z.2.c.q.3.3.c.b.a.c.c.1.zXdXF uXQ.n Y.              O.].p.c.v.n.n.%XA.-.h.rX:XP.-Xa.%X2X%Xa.>X2.c.$Xh.8X'.4  .u.J #.s               ",
"          +.Q.8.a.2.m.m.z.k.n.2.2.%X6.n.c.a.b.b.q.S.%Xp.f.b.zX8.6 '.*.c NX          bXQ.s.A.b.%X,X6.a.A.C.s.s.h.p.d.tXP.c.tXc.a.2.a.h./.=X;X4  .u.J #.c               ",
"          Y.Q.>.c.3.z.n.v.z.n.a.3.S.z.b.b.a.b.c.q.a.a.a.<XP.:XzXG eX'...m           O.`.d.D.b.b.b.5.%X5.s.C.r.>.h.P.aXtX<Xa.%Xn.%Xc.%X:X8XyX5 ;.g.L o.c               ",
"          Y.(.g.b.q.a.z.z.x.c.x.a.6.b.x.c.z.3.z.2Xx.n.<Xq.a.f.dX/.G ;Xi.v XX      bX} C.*Xa.A.b.6.,.<.d.h.r./.L p.h.6X$Xf.%Xa.n.n.q.%XL.8XwX4 ' g.' } c MX            ",
"          Y._./.a.c.x.2.z.I.a.a.A.6.%Xx.c.b.q.z.I.v.2.q.>XI.-X$XiXP 0.8X*.;       n qX6X<.D.d.:XS.S.5.A.:X4X).< 8.L.p.-XP.%Xa.I.c.c.%XL.8XwX4 R /.| } m vX            ",
"          E.(.>.a.x.c.x.n.>X3.c.d.a.b.a.q.c.c.q.3.c.x.c.sXc.c.f.rX6XF f.| ) C   CX( g.a.S.a.b.%Xb.a.A.$X`.qX7 < ;.L.rX%X-Xb.%Xb.a.>XP.$X=XwX4 L g. ./ c OX            ",
"          E.Q.p.6.<.z.c.2.v.m.b.%Xb.d.E 1.a.z.q.z.n.n.c.tX%Xa.c.n.lXp.] /.e.p }.}.;./.n.n.n.%Xb.%Xx.a.$XQ.&.% % y.L.$Xq.2XI.%Xn.n.b.a.f.s.yXG G r.K } v XX            ",
"          E.$.p.x.<.a.q.x.n.m.2.a.S.s.P p.$Xb.c.z.v.z.c.a.c.n.I.1.%XlXF r.u.;.G L.s.b.,X%X2Xx.%X2.5.h.^.~.v # # J.).-Xb.>Xc.a.a.n.%Xa.-X/.hX6 { ;XL / h XX            ",
"          #X..f.6.3.n.a.v.x.n.x.6.*X:X5 p.:X%X,X>X3Xa.x.n.,Xc.c.a.a.iX&XF :X>.r.L.p.1.%X1.1Xx.b.S.d.$XqXQ.& # & (.=Xf.I.<X%Xx.a.b.c.P.$X$XyX5 R wX' / i XX            ",
"          XX} $Xd.6.n.2.z.z.z.5.S.5.wX4 6 ).$X0.q.c.c.a.,Xn.c.b.-X%X1.zXP R 8.h.j.a.%X2Xc.%Xn.n.d.d.).'.t # * , y.).P.2X<XI.b.<Xx.a.1Xb.=XyX] K /.' / v E.            ",
"          XX#.$XA.n.%Xz.z.>XS.S.A.$X'.4 < ^.u.:.a.=.x.x.n.a.%Xa.%Xc.$XtXpX4 :.$X%XP.a.3.1X,Xn.b.a.h.;Xy.% % a , ^./.p.I.1X%Xn.n.x.%XP.%Xh.dX] 5 u. ./ v Y.            ",
"          @X#.$Xa.x.x.q.2.S.n.*Xa.A.`.6 % 7 i.u.$Xa.x.c.b.c.n.a.n.<.$X$XzX$X0.$Xc.b.c.c.>XI.q.1.%X/.`./ % * 0 , e.$Xh.$X-Xa.n.>X>XtXc.-X=XhX] 5 u.| / v Y.            ",
"          +X..h.D.m.6.2.2.>Xz.x.a.:XqX2 & & / ).r.b.%X%Xa.c.b.S.=.n.c.a.%X1XP.0.0X>Xq.n.n.>Xv.a.p.`.u.% % 0 q , e.$Xf.b.-Xn.>Xn.c.%Xc.a.=XuX;.5 r.| / ( C             ",
"          vX} h.<.a.x.a.2.n.x.%X%XC.`.Y % q , e./.P.-X%X2.b.>Xa.n.a.a.n.n.c.P.c.c.<Xz.z.c.c.a.1X$XeX#.% 0 e & , 9.:Xh.$XA.c.n.v.,XS.,Xd.L.dXu.4 ;.{ / _ C             ",
"          NX} C.a.b.%Xx.2.3.,X6.x.-.5XY % a , H g.f.%Xa.n.S.,Xc.n.a.n.1Xa.c.c.c.n.v.I.n.b.%XP.h.).(., % e e , , t.-Xf.$X:X%X3X3X%X%X%X%X>.8Xg.4 `.e./ ) z             ",
"          VX} h.6.S.a.c.z.z.m.S.a.p.`.Y % u & < ' g.:Xa.a.%Xa.a.%Xn.,X%Xa.c.I.n.v.n.<Xz.b.b.-X=X)./ % 2 e 0 1 , t.8X-X$Xh.%X%X>X>Xb.%X-XL.wXg.< ;Xu.[ X.z             ",
"            _ h.%Xa.2.<X2.2.z.D.6.b.5X#.% ) 2 , < K.;X$Xp.1.>Xa.a.a.n.a.c.c.n.x.2.v.c.a.%Xp.$XyX`.3 , y r 0 % , e.=X:X-XA.7X%Xn.,Xx.A.d./.$Xg.4 u.;.W X.z             ",
"             .h.5.b.x.x.c.z.m.n.6.A.;Xy.% ) t , < I /./.p.d.>Xa.%X%X2X%Xn.z.v.,X,Xv.c.0XP.p.8X).^ & 3 i a & 1 3 | g.$X1X%X7X%X>XS.6.x.b.=X8Xu.4 g.e./ @.b             ",
"            / h.a.a.c.c.,X6.6.x.m.A.&Xy.& ) i % , < e.`.).h.%Xc.%Xb.b.b.>X%Xz.2.n.,XI.,X$X$XyXu.3 % @.^ 1 1 q 2 e.L.-XtXA.%X*X,XD.x.a.*X:XlXg.4 g.i.' %.x             ",
"            ` h.1X2.6.%Xn.2.6.7.m.A.4XQ.& ) ( % , 3 H V.`.&Xa.2X6.A.2XS.b.n.m.m.z.n.n.n.;X/.wXy.% & _ t 1 % q % (.).$X*Xc.A.1X%Xn.S.b.1XL.hX^.4 r.e.W @.z             ",
"            } h.5.b.x.6.z.>Xn.x.x.d.4X'.& ) v & , q % / '.;Xn.%X%X%X%X2.6.z.n.m.,Xa.%X1X$Xg.`.p % 0 h 3 8 u & ~.eXg.d.n.b.A.*XD.x.x.%X1XL.yXg.< g.Z./ %.z             ",
"            @.h.5.5.%X,Xn.S.S.x.,Xa./.`., ) v 1 1 % v v &.qXp.2Xn.5.d.<.S.x.n.2.z.>Xc.f.;X`.' , 2 %.y t 8 v # ZXgXu.&X2X2X*X%X*X%Xa.b.d.$XuX9X4 u.V.W *.z             ",
"            _ C.h.<.A.x.c.m.>Xn.>Xs./.u., v ) , , % Y.ZXm }./.S.A.2Xb.b.d.%X,X>Xc.%X%XL.K.^.6 , i ^ h 8 n * E.  {.y.&XA.2X,X%X,X$Xd.d.:XA.$X).4 { u.J *.c             ",
"            ^ h.a.7.a.b.x.3X,X6.S.-Xg.y., Y ^ , & c =   NXc g.%X%X6.6.x.%Xx.1X2.%X,Xa.$XqXo.& 3 @._ q 1 m $     {.~.^.:X>X,Xa.%X1X1X<.A.5.6XwX< i.(.J $.c             ",
"            ^ h.a.<.2.n.n.x.n.z.a.A./.qX, Y @.t 8 e =     * ~.;Xh.x.b.6.z.n.n.n.n.1X/.;X].< & @.^ 2 q e $ E.    oXy.`.b.q.>XaX%Xb.$X7XS.b.iXyX4 y._.J *.e             ",
"            _ $X%XD.x.m.v.v.n.2.v.x.s.uX,  .*.2 q w $       ) ]./.*Xd.a.m.>Xv.a.a.d.C.qXy.& , ( i 2 1 m O       jXQ.).P.2Xc.>Xc.-X$X*XS.d.iX8X4 i.`.W $.c             ",
"            _ $Xb.D.S.%X2.v.z.n.>X1X-XuX< H / Q 1 z d       XXy qXh.:XS.z.z.z.z.A.$X`.`.& & y ( t q e = D       jX[.K.-X>XS.c.%X2X2Xc.D.b.-XdX5 [ (.W #.f             ",
"            _ h.6.5.n.>Xc.c.x.2X7X%X$XyX6 / } i q B O         # _.^./.b.c.v.n.m.-X$XqX#., h O.y q % x =         jX}.;X-Xa.2X,X,X%X<X,XD.*X:XlX6 W ^.W _ f             ",
"            / h.b.x.S.a.>X>X%Xa.n.x.$XyX< H #.i 8 b -           u _.^.:X-X2.1XS.s.&X(.3 % y X.( h f : R.        mX[.9X-XtX>X2.*X<X%X%X%Xc.aXwX6 W (.' } j MX          ",
"            / $X-.5.a.n.c.2.b.S.D.2X$X;X9 H y.^ 8 m -           C y }.y./.f.a.$Xr.qXT % 3 ( t r r x O           NXG.).=X,X%Xa.x.q.I.1XtX%XrXiXK K J.' ` j +X          ",
"            _ C.6.x.m.2Xn.b.A.6XS.d.p.uXK p @.H q B =             $ T.|.].).^.qX'.} % & y h j 1 f = S           NX[.9X=XtXn.,X%X0X0X%X2Xn.d.lX6 [ `.' [ j +X          ",
"            @.h.d.x.6.v.c.x.d.S.S.a.p.9XH 9 *.p y B $               O Y.{.!._._.^ % & * B g 1 g N -             VX@.eX$X,Xn.d.,X%X<X%XtX*X$XiXL W `.{ [ u @X          ",
"            *.s.5.D.x.n.U.x.x.*Xa.d.=XwXQ 9 ~.H t n $                 . x b 0 * # % * B w g > V @               BX~.dX$Xb.1X7Xb.%X0Xb.,X*X1XyXL G ).| [ h XX          ",
"            T.s.5.x.z.6.n.a.x.,X6.C.:XhX[ t (.} 7 v =                   o o o $ k : Z N k N N O S               BXG.K.pX2X,XaX%Xb.%Xa.a.A.6XyX' 4 K.{ ' i E.          ",
"            |.u.d.D.x.z.,Xv.x.x.a.5.j.hXe.< $.T 7 ( :                      Xl @ + @ o o X O O                   ZX_ `.iXaX,XA.-X%Xb.x.A.%X%XiXr.6 ;X8.{ ^ W.          ",
"            {.u.5.7.a.z.n.z.z.6.x.b.P.dXJ.< V. .p v * MX                                                        ZX@.hX:XtX%XA.b.0X%X%X*X,X*XlXr.6 ).;.' ^ H.          ",
"            {.i.d.a.x.m.z.z.,X,X2.%X$XyXt., y. .H i * XX                                                          _ '.-X1Xc.:X*XP.%Xx.S.*X6XlXr.6 ).8.{ ` +.          ",
"            {.V.4.5.x.%Xn.n.>Xx.b.,Xf.zX(.< ..} H Y * XX                                                          O.^.tX,X,X-X$Xb.%Xx.2X*X$XyXu.5 /.;.] ` B           ",
"            oX..s.a.-.a.x.-.A.%Xa.%X$XwXu.< | J H ^ a R.                                                          O.'.4X*XtX$X4Xb.A.%X%X$XZ.eXy.4 r.P >.} m           ",
"            @X_ r.6.-.E 5.6.%Xc.a.%Xb.8Xu.< e.9.J Y * Y.                                                          O.].&XA.*X*Xs.%X%X1Xd.4XZ.eXi.4 L.8.{ } m           ",
"            +X/ g.-.<.k.b.a.z.v.c.n.b.pX).< | t.' Q 1 C                                                           M qXC.n.%X1Xb.a.S.1X%XrX&XhXe.4 ;Xj.! _ m           ",
"            +X^ j.<.2.2.2.<.z.v.z.c.d.wX`.< | t.[ H t m                                                           N.fXC.A.2X%X%Xn.%Xc.rX:XwXhXI I =X>.! X.z           ",
"            +Xv t.a.6.6.2.2.U.n.n.%Xb.).Q., [ 9.! H i f                                                           N.gXC.A.aX>X%X-X%Xn.1Xh.yX`.4 K r.! W O.w           ",
"            +Xv 9.>.=.<.<.,.c.2.>Xc.d.;X(., [ e.J K Q w                                                           N.|.'.:X2X1X1X$Xh.rX:X;XwXT < ' ' W i n x           ",
"            NXv e.>.-.U E <.c.1.x.<.p.;X_., #.J.H H ( ;                                                           @Xn _.`.;X&X$X;X^.wX;X).y., , #.H i j w E.          ",
"              c y.P -.5.5.<.1.x.x.a.b.Z.*.& #.| W H ( ;                                                             : T.~.qX`.(._.(.}._.H & , ) %.u y B :             ",
"              z y.L U 2.a.U E c.6.z.0.`.(.& } o.W H ^ ;                                                             OX$ Y.!.{.!.|.!.%.v & # 0 +.r ; z N k             ",
"              w &.] =.=.U U 3.3.c.a.:.g., , } } [ p ( z                                                               R.o $ : : * * # # $ z b x : Z $ o               ",
"              z ( { ! ~ q.,.~ q.w.:.$Xt.& t $.H Q i ) w                                                                   + X . . o O = - - - @ O X l                 ",
"              E.r #.L P w.w.w.0.p.j.t.9 , ^ #.9 9 ^ 0 Y.                                                                          .X XS D l A S                       ",
"                : %.Q e.{ ;.9.J.y.y., , % X.j y v m ;                                                                                                                 ",
"                R.# O.t $.$.X.v q % % * B ; f r w x -                                                                                                                 ",
"                  l o z w > : $ $ $ ; Z Z x z N d o                                                                                                                   ",
"                    OXX X o X . + O - - @ @ O o -                                                                                                                     ",
"                             X X X XS S S  X                                                                                                                          ",
"                                                                                                                                                                      ",
"                                                                                                                                                                      ",
"                                                                                                                                                                      "
};
