/* XPM */
static char *_d9a9c40fd534654b8c86af72f3726d6eORjRTFngoy0hUOd[] = {
/* columns rows colors chars-per-pixel */
"64 76 250 2 ",
"   c None",
".  c #2B0102",
"X  c #260302",
"o  c #330203",
"O  c #3D0303",
"+  c #3B090A",
"@  c #3A1212",
"#  c #430202",
"$  c #4A0101",
"%  c #430C0B",
"&  c #4B0C0C",
"*  c #480707",
"=  c #540101",
"-  c #5C0101",
";  c #57090A",
":  c #4C1313",
">  c #421616",
",  c #551214",
"<  c #5A1315",
"1  c #551B1C",
"2  c #5C1B1C",
"3  c #5C1719",
"4  c #4F0F10",
"5  c #620101",
"6  c #6C0302",
"7  c #640B0B",
"8  c #6B0C0C",
"9  c #690707",
"0  c #740402",
"q  c #7B0403",
"w  c #740C0C",
"e  c #7B0D0B",
"r  c #780906",
"t  c #64110E",
"y  c #7C110D",
"u  c #72100D",
"i  c #680F12",
"p  c #641213",
"a  c #6E1313",
"s  c #631B1C",
"d  c #6C1B1C",
"f  c #681618",
"g  c #741414",
"h  c #7C1313",
"j  c #7C1619",
"k  c #731B1B",
"l  c #7B1B1C",
"z  c #741819",
"x  c #760E11",
"c  c #7B211E",
"v  c #67211E",
"b  c #551E20",
"n  c #4A1D20",
"m  c #681E21",
"M  c #791D21",
"N  c #582424",
"B  c #543030",
"V  c #622524",
"C  c #6C2223",
"Z  c #69292A",
"A  c #732325",
"S  c #7B2324",
"D  c #78292B",
"F  c #7A2E31",
"G  c #683738",
"H  c #773336",
"J  c #6D2E31",
"K  c #734A4B",
"L  c #840C0C",
"P  c #8A0D0C",
"I  c #830707",
"U  c #84110E",
"Y  c #8B0E11",
"T  c #820F11",
"R  c #920D14",
"E  c #950F18",
"W  c #841413",
"Q  c #8C1213",
"!  c #821B1D",
"~  c #8C1B1C",
"^  c #871718",
"/  c #921316",
"(  c #94151A",
")  c #9A151B",
"_  c #941A1C",
"`  c #9B1B1D",
"'  c #961A16",
"]  c #91110E",
"[  c #A21B1D",
"{  c #A1161D",
"}  c #8E211F",
"|  c #851E21",
" . c #8B1D22",
".. c #9C1C21",
"X. c #951C23",
"o. c #A21D22",
"O. c #A51C29",
"+. c #832224",
"@. c #8B2325",
"#. c #8B262A",
"$. c #852B2C",
"%. c #8C2A2C",
"&. c #882728",
"*. c #932224",
"=. c #9C2529",
"-. c #932B2C",
";. c #9B2B2D",
":. c #972426",
">. c #8B2D32",
",. c #842F31",
"<. c #942D31",
"1. c #9A2D33",
"2. c #883739",
"3. c #933234",
"4. c #9A3234",
"5. c #943A3C",
"6. c #9D3B3C",
"7. c #973539",
"8. c #94302E",
"9. c #A42425",
"0. c #AB2424",
"q. c #AC242A",
"w. c #AC2C2B",
"e. c #A52928",
"r. c #B42C2C",
"t. c #B5262C",
"y. c #AD322C",
"u. c #A7302A",
"i. c #A62D31",
"p. c #B42E33",
"a. c #BA2D35",
"s. c #A23234",
"d. c #AB3235",
"f. c #AC353A",
"g. c #A43B3D",
"h. c #AD3B3C",
"j. c #A43138",
"k. c #B43332",
"l. c #BC353B",
"z. c #B33B3D",
"x. c #BB3B3C",
"c. c #B63737",
"v. c #B5302C",
"b. c #A5211D",
"n. c #C23C3D",
"m. c #C4343A",
"M. c #A9413E",
"N. c #B9423C",
"B. c #86433D",
"V. c #C3413F",
"C. c #973F43",
"Z. c #853D41",
"A. c #A83E41",
"S. c #BA3D41",
"D. c #B33C43",
"F. c #C43C42",
"G. c #CA3B43",
"H. c #874648",
"J. c #984548",
"K. c #885757",
"L. c #985658",
"P. c #924F51",
"I. c #AC4345",
"U. c #A84749",
"Y. c #B34344",
"T. c #BD4244",
"R. c #BB454A",
"E. c #B4494A",
"W. c #BC4A4C",
"Q. c #B74649",
"!. c #A74E52",
"~. c #B74D52",
"^. c #A75557",
"/. c #BB5254",
"(. c #B65658",
"). c #B4524F",
"_. c #B15D62",
"`. c #976563",
"'. c #896464",
"]. c #A86768",
"[. c #BA6265",
"{. c #A97979",
"}. c #B47978",
"|. c #B46F72",
" X c #855E61",
".X c #C34344",
"XX c #CA4146",
"oX c #C44846",
"OX c #C4454A",
"+X c #CA464B",
"@X c #C44A4C",
"#X c #CA4B4D",
"$X c #C84847",
"%X c #D2484E",
"&X c #CC514E",
"*X c #C24E52",
"=X c #CC4D52",
"-X c #C34751",
";X c #D34D53",
":X c #D74E56",
">X c #C45254",
",X c #CC5354",
"<X c #C3555A",
"1X c #CC545A",
"2X c #C55A5C",
"3X c #CD5B5C",
"4X c #CF5854",
"5X c #D25355",
"6X c #D3555A",
"7X c #DA565B",
"8X c #D45A5C",
"9X c #DA5B5D",
"0X c #D65857",
"qX c #E15B5F",
"wX c #D5605D",
"eX c #CD5D61",
"rX c #C65B62",
"tX c #D45C61",
"yX c #DB5D62",
"uX c #E15C63",
"iX c #CD6265",
"pX c #C7686B",
"aX c #D46365",
"sX c #DC6263",
"dX c #DB666A",
"fX c #D5676B",
"gX c #D76C73",
"hX c #D47579",
"jX c #E26366",
"kX c #E26469",
"lX c #E56B6C",
"zX c #EA7578",
"xX c #E06F71",
"cX c #B2807F",
"vX c #EA7C81",
"bX c #C27D80",
"nX c #BA8D8D",
"mX c #C58989",
"MX c #D39898",
"NX c #C69493",
"BX c #F08283",
"VX c #D8A8A7",
"CX c #E4ACAD",
"ZX c #F6BFC2",
"AX c #F8C8C7",
"SX c #FED7D6",
"DX c #EBC1C2",
"FX c #FFE5E5",
"GX c #FFEAEA",
"HX c #FFE0DF",
/* pixels */
"                                                                                                                                ",
"                                                                                                                                ",
"                                                                                                                                ",
"                                                                                                                                ",
"                                                                                                                                ",
"                                                    ].P.2.,.C.C.(.pX!.!.5.^.].].                                                ",
"                                              P.F J.(.pXgXfXgXvXaXzXgXiXgX2XhX[.^.P.|.                                          ",
"                                        ].J 5.[.pXiXiXeXeX1XOX=X=X6X6X6XOXW.*X2X(.[.[.H.].                                      ",
"                                    L.2.$.).fXvXeX*X1X8X8X@X5X5X.XT.5X@X.X5XT.1Xz.W.rX(.pX(.!.                                  ",
"                                  5.J.6.(.fXdX=XOX=X#X@X,X@X#X,X8XT.@X8XOXx.5X5X#X#X8XW.Q.<XiX(.                                ",
"                                J.U.<.xXaXW.6X,X5X9X#X,X0XoXx.,X8XT.,X@X9X.XoX$X#X&X#X@X8X>X1X/.2.].                            ",
"                            H ].l /.vX<X>X1X,X6X5X9X5X5XsX&X.X=X#X#X6X8X5X,X#X0X5X#X8X,X,X#X4X>X).^.}.                          ",
"                        ].H.^.; (.iX<XW.@X,X=XyXoX9X6Xx.#X6XyX+XOX6Xx.S.7XoX5X9X$XT.#X@Xx.oX&Xz.>X/.!.^.                        ",
"                      V 2.(.l ~.BX3X3X1XdX=X#X+X;XOX5X9XkXXXXX+X6X=X=X,X=X=XjX@X@X0XT.#X8X@X+X+Xx.,X<XJ.                        ",
"                    N ].(.6 D.zX3X@XyXyX8X#X6XjX5X8X6X=X=X=X7X8XT.6X8XsXc.5X.X=XOX5X+X+X+Xl.G.l.G.c.h.(.P.                      ",
"                  V J.U.@.;.zXkX=XyXS.+X+XjXyX8X=XyX8X6X6X=X=X1X1X@XR.@X@XT.,X8X#XF.;XF.F.a.a.F.XXF.c.Q.[.C                     ",
"                A !.E.s.W sXdX8X6XjX7X=X6X6X6X,X#X8X=X7XkX;XtX,X@X1XR.1XW.1X1XsX=X+XXXXXn.n.oXc.XXc.@XoXY./.$.                  ",
"              v $.I.zXq D.zXsXOXOXjX7XyX6XyX,X8X1XsX@X6X6X1XR.Q.I.E.A.A./././.W.3XT..XoXV.k.oXV.+Xx.x.c.oXT.-.                  ",
"            `.2.6.W.;.q sXdXtX1XtXOX8XkX=XOX6XtX=X1XtX*XaXA.>.&.7 - = - 8 z +.U./.A.R.#Xp.n.t.n.F.k..XN.y.y.E.A                 ",
"            J J.g.*Xq z.BX3X>X*X1XaX=X=X+X;X6XkX@X8XeX<XU.f ; $ $ $ ; $ # # $ = S (.<XT.+Xa.t.m.XXk.c.N.x.e.Y.$.                ",
"          P.2.#.:.z.0 xXxXR.W.R.>X3X,X6X7X;XuXlXtX*X6.2.s # o N 1 % * & O & O # $ S ).Y.OXl.m.G.m.x.k.u.w.x.z.6.H               ",
"          D 3.;.R...q zX1XR.#X8XW.Y.@X,XyXp.+X9X3XI.2.& : {.K X . b % + : 1 * # # # 7 6.D.z.:Xa.a.w.w.k.y.k.e.g.D               ",
"        H.5.| ~ @X0 h.3X#X,XOX#XtX*X8XdX@X#X5X8XeXJ.O {.         X. N + + % & & , O $ - E.Y.S.l.0.n.c.w.c.w...f.7.^.            ",
"        C >.W i.=.0 h.zX8X6X9X7X6X,X8X#XsX8XS.dX(.#               nX. n > O * & < * # $ c g.f.l.c.k.w.u.y.] 9.i.<.C             ",
"        m &.~ R.:.6 W.3X,X=X+XqXyX8X,XOX,X,XW./.t VX                VX> b : 4 ; ; ; * $ = 6.s.z.x.w.k.e.w.' [ i.<.A             ",
"      P.M @.~ Y.*.0 aXdX,X6X+X7X:X=XyXsX@XR.2X(.].                    nX+ J < ; ; t p $ = +.g.z.w.9.w.y.y.e.9.w.j.S ].          ",
"      m S ! ~ Y.} 6 /.xX8Xx.:X7X7XXX+X5X@X3XpXD DX                      '.1 m ; 7 a k - = g E.z.S.w.e.e.9...` 9.j.&.J           ",
"      < S h y Y.*.6 3XaX8X9XuX7X+X;X5X0X#XeX(.B.                          > 3 f g l z z - 8 A.f.z.9.q.q.9.` ` ` :.%.s           ",
"      m &.W ^ Y.^ 5 iX3X,XyX5X+X9X;X;X9X5XaX^.].                          {., S M +.g S - 5 ;.f.k.o.q.0.q...o..._ 1.d           ",
"      3 +.e ~ ;.^ 6 eXdX6X,X6X6X8X,X5XqX.X>X!.mX                            4 D l j g c a - *.R.z.o.t.0.0.) o..._ -.M }.        ",
"      < +.y ~ u.^ 6 tX1X@XyX1X8X8X6X7X7X#X>X^.nX                            J C k z z c S - j W.i.` t.t.q.o...( _  .S H.        ",
"      , S e ~ h.~ 6 D.1X1X,X1X1X>X3X5X0XjX*X!.mXFX                          cXs D +.c S $.- - 4.S.0.q.t.{ ` ` _ _ h $.s         ",
"      < M h W ;.h 5 W.dXtXyX5XsXlXsXOX,X=X8XfX].HX                            1 A l g | 3.5 5 4.f.q.o.{ [ [ ' _ ~ h 3.<         ",
"      & k h w 4.@.5 g.eX@XsXlX9X8XT.sXlX+XOX/.J.SX                            J A S @.x 4.8 - ! d.o.o.) [ o.` Y *.W $.<         ",
"      , $.w h *.@.- -.eX1XsX=X,XwX8X8X8X6X1XfX2.AX                            K.s S | 9 @.! - g f.=...) ) o.9.Q _ W +.d L.      ",
"      & S l h @.-.5 x 3X3XtX6XjXsX1X5X@X#X6XrX!.CX                            nXm $.@.@.-.4.- w j.9.../ ) ) 9.' Q W l A J       ",
"      1 f l h ! 4.w 5 /.>X1XlXsX8X9XjX5X.X8XeX^.mXFX                            Z 2.%.@.-.%.- 5 -.=._ R ) R / P Q W h S :       ",
"      K.p g ! h 6.g 5 g.3XtX,X,XsX9X@X8X5XOXW.[.].SX                            V D +.| j %.8 - -.s.( Q ` / P P Q L w S ,       ",
"        ; S l ! 6.j 5 ! fXxX@XsXsX9X9X+X=X5XR.pXL.AX                            G D >.-.| 6.k - +.s.X._ ( ( ( P P q e l 2       ",
"        3 S l w %.%.5 j iXaXaX@X8XOX#X#X+X@X*XE.^.AX                            `.Z 5.g j %.c - 8 -.:.=.Y ( ) P P I e a 3 K     ",
"        1 F l g &.<.- 8 I.fX3X@X=X7X9X+X9X8X1X/.(.MX                            NX2 2.l | ! c - 5 -.:.^ _ ( / P P L e 8 s %     ",
"        H C $.l +.6.5 - ~.fX8XdX5X9X5X=X0X5X=X<X(.hXSX                            N $.+.| | 3.a 5 -.*.X._ Q Y Q P e e u C %     ",
"        `.s $.l g U.M - U.iX1X8X6XuX,X5X=X5X,X1XrX^.SX                            Z S %.! ! 6.g - -.@.~ _ L P Y P q 0 8 A +     ",
"          Z $.>.&.A.3.- l 2XtX8X=X6XOX=X5X,X,X@X2X>.ZX                            K.D 3.^ ! 3.a - -.-.W _ U I L L 0 0 8 A O     ",
"          V ,.>.j | 3.- 8 iXdXsX6X6X,X8XsX,X5X6XeX>.VX                            }.M -.^ | #.c 5 4.I.e ^ W L L L r w 9 Z +     ",
"          V F $.%.7.J.5 5 fXxX8XtX,X=X@X8X0X5XOX1XU.mXFX                          mXp #. .:.#.%.5 M.W.e W e L L e e w 7 C %     ",
"          P.,.5.x +.7.7 5 /.dXOX1X8XkX1XoX#X5XyX-X(.L.SX                          MXf 4.1.;.3.&.5 I.h.e W e L y r y w 7 v %     ",
"          }.C 5.&.l %.l 5 @.tX1XkXOXOX1X4X8X+XuX6XgXZ.DX                          MXm 4.*.*.4.h 6 Y.:.T ~ U W y r y w 7 v %     ",
"            3 5.3.-.j ! 5 w fXdX@X#X1XwX8X#X%X7X=X/.^.NX                          MXf %.~ *.i.~ q ,X=.( L y 6 y y W w 7 C %     ",
"            Z 2.&.l 4.g.5 5 ~.aXR.#X,X&X&XoXXX+X6XI.!.H.SX                        mXd &.:.s.d.q ' oXI Q L ^ e w 0 e w 9 C +     ",
"            H.F %.! j M.6 5 I.iX1X8X1X,X,X&X$X;XyX1XpX2.VX                        ].d -.*.h.( I .Xx.P Y I e e e r 0 w 7 C o     ",
"            ].C >.%.| #.l - -.iX,X9X5X#X5X4X5X9X8X,XrX[.P.AX                    SXJ $.! *.S.` ` jX..Q I U e 0 r y 6 9 7 m +     ",
"              s S | 1.@.| 5 - /.#XjXsX#X#X5X,X0X=X=X-XI.!.|.SX                  MXC >.s.i.9.q lXOXL ( I L e q 0 e 6 9 p , B     ",
"              V 2.+.4.-.4.u 5 g.1X8X5X5X9X9X8XyXOX;X7X1X~.!.L.SXGX            SXH d +.I.=.q 5X9X..Q / Y q q Y L 0 6 8 d % '.    ",
"              H.F &.1.^ -.5 9 g aXwX8X8X9X5X@X#X.X9X+XyX>XrX(.H.NXSXFXFXHXFXSX|.d 5.E.*.Q #XOXI ` _ L Q I P Q I 0 w 8 C +       ",
"                < >.! @.h 8.= - I.3XdX5X=X9X9X5X$XXX;XuX=XD./.pXJ.H.bXMXNXNX].!.U.-.s.Y.8XS.Y ` ( Y / ( / I q q q h 7 C o       ",
"                b D &.:.h 4.- = l fX1X,X9X5X#X$X$X7XXX%X;X=X@X2X~.!.).5.C.5.!.).M.M.8X&Xc.' / ` ( ( ` P P P 0 L y 9 A : K.      ",
"                K.m >.l | +.z - - E.>XtX6X5Xx.$XoX0X;X;X;XF.6X,XOXD.Q.>X/./.<Xh.N.z.u.P ' ` ' ' ` / ( P / P P ^ w a Z +         ",
"                  J D M j l 5.- = %.iX1X#XF..X#X#Xx.x.;X;Xa.F.+X+XF.F.S.d.c.e.w.e.c.y.' ' ` _ _ ) R R P Q I ^ w 9 A : G         ",
"                  K.3 D +.g a S = $ 7.~.W.6XOXOX=XOX0X5X+X;XG.%XXX:XF.F.F.p.w.q.y.0.0.0.` ' / / ) ) ( P L e h 9 i J @           ",
"                    1 F f l z $.p = = I.eX@XsX+X;XOX#X#X#X5Xl.XX%XXX;XF.l.l.r.0.v.0.[ b.` ) ( R R ) ( L e e 9 a F : K           ",
"                    K.2 A z M d A = = - I./.OX,X=X5X=X.X=X+X+Xn.l.+X.Xc.c.p.n.a.[ v.r.[ 0.O...) R / L W e y 9 A 2 .             ",
"                      1 D D 7 7 k d = $ l /.Y.#X;X+X+X,X@Xd..X#Xx.oXx.k.x.x.[ 0.0.r.q.{ q.O.O.o.) ) L ^ W l a s o               ",
"                        # F m A d D d = $ 7 g.3X8X#X@X.Xx.5X=Xx.x.@XT.oXk.k.r.a.a.0.0.q.q.R O.O.E _ T h l k v O                 ",
"                          > K C ; ; A p = = 5 g.E.Q.Y.Y.@XOXk.x..Xc.x.r.r.r.m.m.t.t.t.[ o.) ) 9.=.^ | z s V o                   ",
"                            o Z m ; < d A = $ - &.E.E.>X1X9Xx.x.k.c.k.n.r.r.a.a.r.r.o.o..._ _ X.<.| d C & o                     ",
"                              > 1 Z 3 & Z s ; $ = a 6./.Q.z.R.S.c.T.T.oXe.w.r.q.p.9.=.d.X. .:.| z A m * +                       ",
"                                G + N N : 1 1 4 $ $ = 8 7.I.W.Y.f.f.f.d.f.i.z.i.*.;.-.-.7.M g d C O o                           ",
"                                    X . B N N 1 , , # = = = i 7.6.g.I.A.I.@.4.7.C.5.J.2.2.F < O . K                             ",
"                                        @ X @ N N Z Z , $ $ ; $ ; p f p f f d D * # * O o . .                                   ",
"                                            K + . o @ o 1 % + O O & % % : : . + `.                                              ",
"                                                       XG G B n > @ X X X @ K                                                   ",
"                                                                                                                                ",
"                                                                                                                                ",
"                                                                                                                                ",
"                                                                                                                                "
};
