/* XPM */
static char *_3c2a268cda84acd8fb6353a3497cb02M12OxoymNWfFhPJJ[] = {
/* columns rows colors chars-per-pixel */
"61 77 243 2 ",
"   c None",
".  c #250102",
"X  c #2B0103",
"o  c #330203",
"O  c #3C0202",
"+  c #39090A",
"@  c #3A1112",
"#  c #36110E",
"$  c #440202",
"%  c #4B0101",
"&  c #4C0C0C",
"*  c #470A0B",
"=  c #540101",
"-  c #5B0101",
";  c #53050A",
":  c #530D0D",
">  c #5D0B0D",
",  c #590807",
"<  c #4A0D13",
"1  c #580D13",
"2  c #4D1213",
"3  c #4A171A",
"4  c #5D1313",
"5  c #5D1C1C",
"6  c #56161A",
"7  c #4B120F",
"8  c #630101",
"9  c #6B0101",
"0  c #6A0A0B",
"q  c #64090A",
"w  c #730102",
"e  c #75090B",
"r  c #6A130E",
"t  c #640C13",
"y  c #6B0D13",
"u  c #750E12",
"i  c #651213",
"p  c #641C1C",
"a  c #6C1C1D",
"s  c #691518",
"d  c #7B1B1C",
"f  c #761819",
"g  c #7B140F",
"h  c #5C201D",
"j  c #4D221D",
"k  c #69211E",
"l  c #7A231D",
"z  c #551D21",
"x  c #651C22",
"c  c #6B1E22",
"v  c #771D22",
"b  c #592527",
"n  c #542C2D",
"m  c #652424",
"M  c #6C2223",
"N  c #682729",
"B  c #752325",
"V  c #732A2C",
"C  c #7B2B2C",
"Z  c #792627",
"A  c #76302B",
"S  c #673939",
"D  c #7E3233",
"F  c #793938",
"G  c #6F2E30",
"H  c #77433D",
"J  c #784748",
"K  c #735252",
"L  c #881B1B",
"P  c #971C1E",
"I  c #850F0B",
"U  c #A81D1D",
"Y  c #B01719",
"T  c #8E221E",
"R  c #AC211C",
"E  c #B1261E",
"W  c #861D22",
"Q  c #971E21",
"!  c #AD1E21",
"~  c #842424",
"^  c #8B2325",
"/  c #832B2B",
"(  c #8B2B2C",
")  c #882729",
"_  c #932C2D",
"`  c #992928",
"'  c #87312F",
"]  c #96332C",
"[  c #882D32",
"{  c #8C3434",
"}  c #883738",
"|  c #933333",
" . c #9C3534",
".. c #953B3B",
"X. c #9B3C3C",
"o. c #963738",
"O. c #982C31",
"+. c #AC2525",
"@. c #A42A2B",
"#. c #AC2C2C",
"$. c #A62528",
"%. c #B42524",
"&. c #B42A27",
"*. c #B42B2C",
"=. c #BB2C2C",
"-. c #B82926",
";. c #BC322E",
":. c #B7332C",
">. c #A72D31",
",. c #BB2E32",
"<. c #B52D31",
"1. c #A43333",
"2. c #AC3334",
"3. c #A23B36",
"4. c #A43B3B",
"5. c #AB3B3B",
"6. c #A93539",
"7. c #B43133",
"8. c #BC3333",
"9. c #BD3A35",
"0. c #BC353A",
"q. c #B43B3D",
"w. c #BC3B3B",
"e. c #B33539",
"r. c #A4322F",
"t. c #C22C2D",
"y. c #C22E31",
"u. c #C33534",
"i. c #C33935",
"p. c #C3353A",
"a. c #C43C3B",
"s. c #CA3D3C",
"d. c #CB3837",
"f. c #CE3736",
"g. c #86403E",
"h. c #99423E",
"j. c #A8413E",
"k. c #BC413D",
"l. c #B2423D",
"z. c #C5413D",
"x. c #CB423E",
"c. c #C34037",
"v. c #D0423E",
"b. c #843E41",
"n. c #993F41",
"m. c #AC3D42",
"M. c #A33E42",
"N. c #BB3D42",
"B. c #B33E41",
"V. c #C33D43",
"C. c #CB3E41",
"Z. c #D23D43",
"A. c #884848",
"S. c #994544",
"D. c #845857",
"F. c #955455",
"G. c #92504E",
"H. c #A44244",
"J. c #AB4343",
"K. c #A9494A",
"L. c #B34243",
"P. c #BB4344",
"I. c #BB4449",
"U. c #B34C4C",
"Y. c #BD4B4D",
"T. c #B74747",
"R. c #B7514E",
"E. c #B64D50",
"W. c #A75756",
"Q. c #B45353",
"!. c #BC5354",
"~. c #BB5859",
"^. c #896365",
"/. c #936B6A",
"(. c #997672",
"). c #A76A68",
"_. c #B36969",
"`. c #A77A7B",
"'. c #B67876",
"]. c #BC716F",
"[. c #A15F5E",
"{. c #C44344",
"}. c #CB4343",
"|. c #CC4A46",
" X c #C4464A",
".X c #CB454A",
"XX c #C44B4C",
"oX c #CC4B4B",
"OX c #C64A46",
"+X c #D24544",
"@X c #D34A47",
"#X c #D2464B",
"$X c #D34C4C",
"%X c #DA4C4C",
"&X c #DF4547",
"*X c #CB514D",
"=X c #D5514E",
"-X c #DB524F",
";X c #C34D53",
":X c #CD4D51",
">X c #D44C51",
",X c #D94D52",
"<X c #D74750",
"1X c #C35453",
"2X c #CB5354",
"3X c #CC5B5A",
"4X c #C75859",
"5X c #D35354",
"6X c #DB5354",
"7X c #D55B56",
"8X c #DA5956",
"9X c #DB5459",
"0X c #D35A5B",
"qX c #DC5B5B",
"wX c #D45559",
"eX c #E25B5D",
"rX c #E25657",
"tX c #D5625D",
"yX c #CC615B",
"uX c #DA5C61",
"iX c #D65F63",
"pX c #CE5F61",
"aX c #E35C62",
"sX c #E85B63",
"dX c #C96466",
"fX c #D46263",
"gX c #DB6564",
"hX c #DE6C6C",
"jX c #D8696B",
"kX c #D66F70",
"lX c #E56567",
"zX c #E57473",
"xX c #E7605D",
"cX c #BC7F80",
"vX c #B98886",
"bX c #C68B88",
"nX c #CA9694",
"mX c #D79595",
"MX c #CF8F8E",
"NX c #D4ABA6",
"BX c #ECB0AE",
"VX c #E69691",
"CX c #FECCCA",
/* pixels */
"                                                                                                                          ",
"                                                                                                                          ",
"                                                                                                                          ",
"                                                                                                                          ",
"                                                                                                                          ",
"                                                                                                                          ",
"                                                    '.F.D V V B c M M p p N A.).                                          ",
"                                              g.M a / ..X.H.U.J.K.J.J.K.H.X.{ [ v c b.cX                                  ",
"                                        A.k Z | _ 6.2.q.q.N.` >.N.7.$.e.2.2.2.;Xm.H.o./ M A.                              ",
"                                    H A { j.4.q.P 8.*.8.+.8.U *.8.%.,.8.C.*.8.V. Xe.I.4XK.{ C ).                          ",
"                                G.l ..4.` @.*.*.! ! y.t.=.8.x.&.u.u.u.u.=.8.8.p.,.V.V.I.I.1XJ.B N                         ",
"                              m / J.6.@.$.p.u.t.%.&Xs.f.u.;.&.8.u.;.a.i.i.u.+X+XC.=.#X.X{.2XP.H.S.m                       ",
"                            p ..5.@.#.0.+.=.u.u.Y t.Y -.u.x.i.z.z.8.a.@Xx.8.u.s.d.,.C.,..X.X{.fX4...} '.                  ",
"                          C Q.1.@.U a.*.=.s.u.u.=.-.s.+Xu.a.%Xa.*.8.*.a.*.s.a.x.u.a.d.}.rX}..X{.iXT...D                   ",
"                        C U.` Q *.w.*.w.&.8.&.8.8.a.u.s.a.#X8.*.}.$X$Xu.}.$X-X}.a.}.%X+X}.$XwX5XV.2XW K.N                 ",
"                      M U.>.$.*.8.*.s.8.8.a.*.0.7.8..X8.V.V.V.0.*.p.C..X,X%XC.i.}.eXu.6X6X.X>X>X.XlXXX0 W.N               ",
"                    B H.q.$.*.=.;.;.i.R a.s.w..Xw.e.XXq.q.oXN. X0.0.#Xp.p.#X%X$X$X.X|.eX.X#X<X#X XgXI.e H.} J             ",
"                  ].( 2.#.*.*.&.*.E a.8.-X|.7.XX XI.1.O.r.1.J.6.5.@. XoXV.9X$X.X.X6X|.}.8.p.<X X:X;XuX9 _ W.k ).          ",
"                  M  .@.+.*.8.&.&.u.8.}.5XP.Y.L.` d - 0 - - - - 8 d ) U.3X1X5Xk.oX}.oX5XoXa.oX5XY.4XL.w _ H.h.h           ",
"                '.Z 5.2.w.8.s.s.=.s.&.+.q.Y.H.8 = = = - = , % % % % % - ) !.1XXX:XoXaXeXoX*X2X0XpXjXd 8 4.| ( C F         ",
"                F X.2.7.9.8.0.s.Z.%.7.w.Y. .= = - q a a k : 5 h b 5 5 4 = | U.I.wX#X.X#Xa.5XtX3XkX| - u  ._ ) ..x         ",
"                B L.2.8.,.8.8.,.=.<X#.0XU.= - r a a s 4 $ $ 2 b + o < O $ % ( 4X;XuXoXqX{.XXfX!.| - = o. .^ ^ o.M         ",
"                ~ 1.+.*.*.*.*.*.p.0.e.4X^ = q / a > % $ * z + . # K /.`.`.2 ; Z U.fX;XY.Y.4XH.r , $ Z H.W W d C N         ",
"              W.| #.&.=.s.&.a.0.,.*.2X4X8 0 ' d i t s 5 z X /.              b * a [ M._ ) f % = $ k ' d f f y D N         ",
"              D  .7.*.-.=.8.8.p.p.0.5X2X8 d | f t t x 6 +                     n O 1 ; = % ; $ : m g.4 > t t } <           ",
"              Z 1.*.=.u.8.x.a.8.s.}.w.Y.L T _ f q B x <                         D.o O 2 N m N m G 2 6 ; c D 2 J           ",
"              B q.*.=.%.&.a.s.*.a.|.k.XXr.w J.L 8 B &                               ^.+ + z 3 b b b b m b O D.            ",
"              Z 1.+.=.R 8.a.a.=.z.}.9.*X7XI r.4.~ - }                                     `.j X . . X X 3                 ",
"              / L.a.d.&.u.8.*.,.@Xz.8.}.qX8X@.5.L.d _.                                                                    ",
"              C m.w.8.&.;.a.=.@Xa.@Xa.}.s.8X|.P.6. .X.].                                                                  ",
"              B 6.7.a.;.i.i.-.s.u.,Xu.C.+X=.z.8Xw.l.!.Q.' ' S._.MX                                                        ",
"              a m.#.}.&.s.8.u.a.+XC.u.C.s.%Xs.i.|.7X3XfXfX~.U.H.o.Z Z } _.bX                                              ",
"              p  .e.0.y.-.a.c.9.u.d.s.v.}.+X@X8X5XoXoX5X{.XX2X1X3X1X4XR.K.l Z Z W.mX                                      ",
"              m ..` *.=.=.*.z.z.s.d.v.s.8.|.=Xa.|.z.$XqX}.a.V.5XqX0X0X0X3X1X4X~.U.W.} F.nX                                ",
"              D.a 4.N.*.,.&.;.i.i.+X=XrX8.$X}.}.eX%X%X$X}.#XV.oX9X>X:X0X2X2X3X3XhXkXdXn.V F bX                            ",
"                & S.L.P &.8.a.u.&.9.}.}.$X$X@X=X}.}.@X$X@X,X{..XeX}..X9XqX2XuX2X;X0X4XdXdXK.V G.                          ",
"                S V { m.>.#.}.d.s.5X|.}.a.%Xs.+X$Xs.8.s.#X#X}.>XV.#XaXaX:XoXuX9X X X Xq.fXdXU.{ C bX                      ",
"                  o D n.L.q.0.C.a.a.=X}.}.x.%X$X@X+Xa.%XeX6X.XV.aX.X.XaXqXoX:X9XaX>X>X:XXXgXhX4./ A.NX                    ",
"                  (.O A { Y.XXV.w.8.8.}.a.+Xp.u.d.}..X@X|.=X$X6X.X>XoX{.{.:X9X.XoX.X#X@X5Xw.gXVX .K.A nX                  ",
"                    ^.o V { H.B.5.2XoXa.}.6X}..X}.a.|.=X$X=X{.qX5X$X5X{.:X{.9X5XoXqX$X}.8X5XtX7XhXg S.F NX                ",
"                      /.o * 4 s _ L.L.fXXXoX5Xw.w.{.{.OXw.{.{.qX8X|.$X5XqXlXqX6X#X$X{.wX|.7XP.P.fX1Xf W.m                 ",
"                          j X 5 , r d j.5.T.Y.L.OXP.2X7X2X5X5X{.oX=X5X6XeXlX$XqX#X|.{.|.qX5X2XOX1X4Xg X.S.G               ",
"                            (.o O O : 4 = q ~ X.R.j.U.!.I.P.XX X2X5X0XwX$X5X}.qXeXlX5XoXoXw.XX2XP.hX` L K.B A.            ",
"                                  H + X $ : : $ $ , r / o.J.Y.fXY.Y.XX0XoXwXqX9X}.6X.X5X>XoX:X5X1XhXP.w 4.H.p vX          ",
"                                        D.j 3 + + 7 & : = - y W Q.~.1XgX0X5XqX{.>X6X8X$X9X6X5X2X2XzX0Xw 1.| } h           ",
"                                                K j # + * $ i > % f | ~.tXXXoX{.6X6X6X.X.X9X9XwXXXzXlXw 1.3...p nX        ",
"                                                        D.3 < O $ % s S.dX1X2XoX|.$X@X@X}.6X>Xw.2XhX3X9 1.j.| Z F.        ",
"                                                                `.3 O > X.Y.3XoX{.6XlX=X@X{.lXoX2XzXfX8 3.4.L { m         ",
"                                                                    vX* { U.3XqX9XeX6X}.5X7X7X2XwX0XjX- 3.J.T | i         ",
"                                                                        > U.XX5X9X8X9X9X9XoX*XwX0XzX4X8 ] 3.L / i         ",
"                  MXG.b.V V G ).                                        ].X.2X5XaX,X<X#X9X6X>X}.{.hX .- ] ` O.) p         ",
"                b.[ [ H.Q.~.n.' A.NX                                    MXS.fX0X#X9XsX<XC.C.6X9X2XfX] 8 4.1.^ _ k         ",
"            vXV | m.I.N.N.2X2X .h.D MX                                  ].dXY.5XqX6X9X,X<X#X9X9XuXhXe g l.` P ) p         ",
"          nXa H.L.#.U &.*.7.{.P.] ..} bX                              BXS.dXY.qX>X,X6X<X<XoX>X.XgXY.9 L 5.` Q ( 5         ",
"          M ..^ $.*.;.;.+.*.}.qXlX` ~ { _.CX                        BXG.~.1XwX5X}.#X#X.XoX.X.X XjXr.9 ^ 5.L O.) N         ",
"        ).{  .Q *.i.=.-.;.}.8.a.|.7Xl.] h.W.mXCX                CXmXW.Q.!.0XoX.X#Xs.}.|.5XP. X0XpXe 9 O.P Q W Z F         ",
"        V M.2.9.:.i.;.i.;.a.&.8.x.}.*X2XT.o.K.} _.MXmXBXNXMXbX).} K.dX!.XXqXrXrX%Xx.@XeX0X2XXX3X4X8 ^ U.L L ^ i /.        ",
"        / m.@.:.;.s.-.c.i.=.u.+Xi.}.a.oXoX2X4X!.H.H./ K.' ..S.Q.~.!.1X2XwX>Xa.%Xd.%X-X8X5X2XgX3X9 9 ^ _ ` _ ( a vX        ",
"        B 1.` =.%.R E ;.y.y.t.d.a.@Xz.a..X}.oXXXXXfX3X1X1XyX3XY.tX3X2X0X6X6X+XrXs.+XxX{.5XXX3X5.8 e ) _ ) ~ ..6           ",
"        i  .@.7.u.%.-.%.-.d.d.Z.u.@X+Xd.@XC.}.C.{.>XoXOXoX*Xk.w.OXOX5XqX}.,X#Xs.@X}.z.5XI.I.T.9 8 ^ ) ( u Z M D.          ",
"        p X.6.#.;.u.t.y.t.t.Z.s.u.}.s.@X+X%X@Xs.+Xx.a.z.|.|.z.=XqXoX|.6X}.,X%X}..X5XoX{.2X1Xe 8 u W ) / i D 5             ",
"        J Z 4.2.&.-.t.f.s.u.u.u.a.x.+X+Xu.s.+Xs.a.|..Xz.%X%X}.s.-X-X}.@X#X>X.X#X.X{.7XXXm.0 - 8 ) _ 0 a C m F             ",
"          5 ( 6.w.,.t.u.s.%X9.z.x.}.$Xi.u.u.@X@X=X8X{.$X}.$Xs.+Xs.-XrX9X9X>XV.V.wXoX3XJ.f - ; [ ( u f i D &               ",
"          h B ( 1.{.=.u.u.x.9.:.}.+Xd.u.;.x.x.%Xz.|.|.a.$X.X%X+Xs.+X%X%X.XV.:X5X2X1X4.0 - , D } ~ ) > C 2 `.              ",
"            O D o.5.2.7.}.8.a.a.x.@Xu.+Xv.i.u.-Xa.@X6Xx.a.8X}.@X6X%XrXC.#X0.:X;X~.X.- - % } { q s t c 6 J                 ",
"              O Z ( 6.e.{.0.0.{.a.x.}.}.i.a.=X@X$X}.|.|.}.$X$Xa.}.@X$X.XoX3XY.4.0 = % , Z [ y > > N z 3                   ",
"                $ 4 v Q.L.I.B. X{.w.w.z.{.oXwX{.z.{.w.{.oXOX2XOXoXXXP.2XY.J.d 8 = - i Z [ t i i V 2 3                     ",
"                  + $ > v v o.M.5.Y.l.L.q.Y.P.1XB.2XXXXX3X;X2XY.L.L.5._ f q - = t C } s ; 1 : G 2 S                       ",
"                    S * O 4 ; > r ....X.K.~.U.dX!.U.!.!.U.K.H.) d 0 - = = $ ; c B c ; x 1 x 2 o /.                        ",
"                        S + o 2 : ; % % 4 a s s v s f i > = = = = = = % : m m 5 < < 6 6 + o n                             ",
"                              n @ X o O * & & : $ % $ $ $ $ $ 6 x N m N 6 z 6 b z 3 + X S                                 ",
"                                      S # @ + @ 3 6 z b b S S G S G b 3 3 # + X X @                                       ",
"                                                K n # X X . . . . X . . + n ^.                                            ",
"                                                                                                                          ",
"                                                                                                                          ",
"                                                                                                                          ",
"                                                                                                                          "
};
